<svg xmlns="http://www.w3.org/2000/svg" viewBox="0 0 28.13 28.13"><defs><style>.cls-1{fill:#f99c24;}.cls-2{fill:#fff;}</style></defs><g id="Capa_2" data-name="Capa 2"><g id="Layer_1" data-name="Layer 1"><circle class="cls-1" cx="14.06" cy="14.06" r="14.06"/><path class="cls-2" d="M7,6.64c.21-.2.41-.41.63-.59A8.79,8.79,0,0,1,9,5.08a9.65,9.65,0,0,1,1.52-.73,10.3,10.3,0,0,1,2-.52,9.89,9.89,0,0,1,2.24-.09,9.76,9.76,0,0,1,2.08.37,9.37,9.37,0,0,1,2.48,1.11,10.33,10.33,0,0,1,1.77,1.39,9.8,9.8,0,0,1,1.55,2,9.44,9.44,0,0,1,1.09,2.65A9.64,9.64,0,0,1,24,14.05a10,10,0,0,1-4.11,7.69A10,10,0,0,1,17,23.19a9.85,9.85,0,0,1-2,.4,9.52,9.52,0,0,1-1.77,0,10,10,0,0,1-6.83-3.56A10.2,10.2,0,0,1,5.19,18.2a9,9,0,0,1-.63-1.55c-.06-.18-.1-.35-.15-.53L5.51,15s0,0,0,.05a8.89,8.89,0,0,0,.34,1.35,8.72,8.72,0,0,0,4.55,5.09,8.43,8.43,0,0,0,2.87.77,8.06,8.06,0,0,0,1.9,0,8.31,8.31,0,0,0,1.64-.38,8.6,8.6,0,0,0,2.92-1.68,8.59,8.59,0,0,0,2.58-4,8.88,8.88,0,0,0,.34-1.69,8.61,8.61,0,0,0-.82-4.63,8.3,8.3,0,0,0-1.11-1.74,8.71,8.71,0,0,0-1.82-1.66,8.29,8.29,0,0,0-2.28-1.1A8.06,8.06,0,0,0,15,5.07a8.46,8.46,0,0,0-2.19,0,8.16,8.16,0,0,0-2.15.63A8.35,8.35,0,0,0,8.23,7.3l-.29.25c-.1-.11-.21-.22-.32-.32Z"/><path class="cls-2" d="M7,6.64l.59.59c.11.1.22.21.32.32l0,.06c-.25.28-.5.55-.73.85a8.37,8.37,0,0,0-1.68,4,8.08,8.08,0,0,0-.06,1.84c0,.23,0,.47.07.7l-1.1,1.09-.12-.49a10.25,10.25,0,0,1-.18-2.47,10.36,10.36,0,0,1,.23-1.66A10.1,10.1,0,0,1,5.27,9,9.72,9.72,0,0,1,6.38,7.34C6.59,7.1,6.81,6.87,7,6.64Z"/><path class="cls-2" d="M9.26,13A4.93,4.93,0,0,1,13.4,8.87V7.68A.66.66,0,0,1,14.06,7a.68.68,0,0,1,.67.69v1.2A4.89,4.89,0,0,1,18.85,13h1.21a.67.67,0,1,1,0,1.33H18.87a4.94,4.94,0,0,1-4.14,4.14v1.2a.67.67,0,1,1-1.33,0c0-.37,0-.74,0-1.11v-.09a4.94,4.94,0,0,1-4.14-4.14H8.08a.68.68,0,0,1-.69-.67A.67.67,0,0,1,8.08,13H9.26Zm8.22,0a3.48,3.48,0,0,0-2.75-2.75v1.09a.67.67,0,1,1-1.33,0V10.26A3.47,3.47,0,0,0,10.65,13h1.1a.67.67,0,1,1,0,1.33H10.64a3.51,3.51,0,0,0,1.22,2,3.39,3.39,0,0,0,1.54.73V17c0-.33,0-.66,0-1a.66.66,0,0,1,1.31-.14.55.55,0,0,1,0,.18v1.07a3.47,3.47,0,0,0,2.75-2.75H16.36a.66.66,0,0,1-.64-.77.65.65,0,0,1,.67-.56Z"/></g></g></svg>