<svg width="23" height="21" viewBox="0 0 23 21" fill="none" xmlns="http://www.w3.org/2000/svg">
<path d="M12.6475 19.0992L11.5574 20.1398C11.0958 20.5805 10.3493 20.5805 9.89263 20.1398L0.346205 11.032C-0.115402 10.5914 -0.115402 9.87891 0.346205 9.44297L9.89263 0.330469C10.3542 -0.110156 11.1007 -0.110156 11.5574 0.330469L12.6475 1.37109C13.1141 1.81641 13.1042 2.54297 12.6279 2.97891L6.71049 8.36016H20.8239C21.477 8.36016 22.0025 8.86172 22.0025 9.48516V10.9852C22.0025 11.6086 21.477 12.1102 20.8239 12.1102H6.71049L12.6279 17.4914C13.1092 17.9273 13.119 18.6539 12.6475 19.0992Z" fill="white"/>
</svg>
