<svg width="22" height="24" viewBox="0 0 22 24" fill="none" xmlns="http://www.w3.org/2000/svg">
<path d="M0 21.75C0 22.9922 1.0558 24 2.35714 24H19.6429C20.9442 24 22 22.9922 22 21.75V9H0V21.75ZM15.7143 12.5625C15.7143 12.2531 15.9795 12 16.3036 12H18.2679C18.592 12 18.8571 12.2531 18.8571 12.5625V14.4375C18.8571 14.7469 18.592 15 18.2679 15H16.3036C15.9795 15 15.7143 14.7469 15.7143 14.4375V12.5625ZM15.7143 18.5625C15.7143 18.2531 15.9795 18 16.3036 18H18.2679C18.592 18 18.8571 18.2531 18.8571 18.5625V20.4375C18.8571 20.7469 18.592 21 18.2679 21H16.3036C15.9795 21 15.7143 20.7469 15.7143 20.4375V18.5625ZM9.42857 12.5625C9.42857 12.2531 9.69375 12 10.0179 12H11.9821C12.3062 12 12.5714 12.2531 12.5714 12.5625V14.4375C12.5714 14.7469 12.3062 15 11.9821 15H10.0179C9.69375 15 9.42857 14.7469 9.42857 14.4375V12.5625ZM9.42857 18.5625C9.42857 18.2531 9.69375 18 10.0179 18H11.9821C12.3062 18 12.5714 18.2531 12.5714 18.5625V20.4375C12.5714 20.7469 12.3062 21 11.9821 21H10.0179C9.69375 21 9.42857 20.7469 9.42857 20.4375V18.5625ZM3.14286 12.5625C3.14286 12.2531 3.40804 12 3.73214 12H5.69643C6.02054 12 6.28571 12.2531 6.28571 12.5625V14.4375C6.28571 14.7469 6.02054 15 5.69643 15H3.73214C3.40804 15 3.14286 14.7469 3.14286 14.4375V12.5625ZM3.14286 18.5625C3.14286 18.2531 3.40804 18 3.73214 18H5.69643C6.02054 18 6.28571 18.2531 6.28571 18.5625V20.4375C6.28571 20.7469 6.02054 21 5.69643 21H3.73214C3.40804 21 3.14286 20.7469 3.14286 20.4375V18.5625ZM19.6429 3H17.2857V0.75C17.2857 0.3375 16.9321 0 16.5 0H14.9286C14.4964 0 14.1429 0.3375 14.1429 0.75V3H7.85714V0.75C7.85714 0.3375 7.50357 0 7.07143 0H5.5C5.06786 0 4.71429 0.3375 4.71429 0.75V3H2.35714C1.0558 3 0 4.00781 0 5.25V7.5H22V5.25C22 4.00781 20.9442 3 19.6429 3Z" fill="#58585B"/>
</svg>
