<svg width="37" height="42" viewBox="0 0 37 42" fill="none" xmlns="http://www.w3.org/2000/svg">
<g opacity="0.8">
<path d="M13.3197 35.4033C2.78008 20.5383 0.82373 19.0127 0.82373 13.5496C0.82373 6.06635 7.05917 0 14.751 0C22.4429 0 28.6783 6.06635 28.6783 13.5496C28.6783 19.0127 26.722 20.5383 16.1824 35.4033C15.4907 36.3754 14.0113 36.3753 13.3197 35.4033Z" fill="#F89C1B"/>
<path d="M20.5241 10.8396H11.9859V9.63524C11.9859 9.41443 11.8189 9.23376 11.6147 9.23376H10.8722C10.6681 9.23376 10.501 9.41443 10.501 9.63524V10.8396H9.38734C9.18316 10.8396 9.01611 11.0203 9.01611 11.2411V12.0441C9.01611 12.2649 9.18316 12.4455 9.38734 12.4455H10.501V21.6794C10.501 21.9002 10.6681 22.0808 10.8722 22.0808H11.6147C11.8189 22.0808 11.9859 21.9002 11.9859 21.6794V12.4455H20.5241C20.7282 12.4455 20.8953 12.2649 20.8953 12.0441V11.2411C20.8953 11.0203 20.7282 10.8396 20.5241 10.8396ZM12.7284 18.8691H20.1528V13.2485H12.7284V18.8691Z" fill="white"/>
</g>
</svg>
