<svg width="18" height="20" viewBox="0 0 18 20" fill="none" xmlns="http://www.w3.org/2000/svg">
<path d="M1.28571 18.125C1.28571 18.6223 1.4889 19.0992 1.85058 19.4508C2.21226 19.8025 2.7028 20 3.21429 20H14.7857C15.2972 20 15.7877 19.8025 16.1494 19.4508C16.5111 19.0992 16.7143 18.6223 16.7143 18.125V5H1.28571V18.125ZM12.2143 8.125C12.2143 7.95924 12.282 7.80027 12.4026 7.68306C12.5231 7.56585 12.6866 7.5 12.8571 7.5C13.0276 7.5 13.1912 7.56585 13.3117 7.68306C13.4323 7.80027 13.5 7.95924 13.5 8.125V16.875C13.5 17.0408 13.4323 17.1997 13.3117 17.3169C13.1912 17.4342 13.0276 17.5 12.8571 17.5C12.6866 17.5 12.5231 17.4342 12.4026 17.3169C12.282 17.1997 12.2143 17.0408 12.2143 16.875V8.125ZM8.35714 8.125C8.35714 7.95924 8.42487 7.80027 8.54543 7.68306C8.66599 7.56585 8.8295 7.5 9 7.5C9.1705 7.5 9.33401 7.56585 9.45457 7.68306C9.57513 7.80027 9.64286 7.95924 9.64286 8.125V16.875C9.64286 17.0408 9.57513 17.1997 9.45457 17.3169C9.33401 17.4342 9.1705 17.5 9 17.5C8.8295 17.5 8.66599 17.4342 8.54543 17.3169C8.42487 17.1997 8.35714 17.0408 8.35714 16.875V8.125ZM4.5 8.125C4.5 7.95924 4.56773 7.80027 4.68829 7.68306C4.80885 7.56585 4.97236 7.5 5.14286 7.5C5.31335 7.5 5.47687 7.56585 5.59743 7.68306C5.71798 7.80027 5.78571 7.95924 5.78571 8.125V16.875C5.78571 17.0408 5.71798 17.1997 5.59743 17.3169C5.47687 17.4342 5.31335 17.5 5.14286 17.5C4.97236 17.5 4.80885 17.4342 4.68829 17.3169C4.56773 17.1997 4.5 17.0408 4.5 16.875V8.125ZM17.3571 1.25001H12.5357L12.158 0.519538C12.078 0.363372 11.9548 0.232008 11.8022 0.140225C11.6496 0.0484421 11.4736 -0.00011828 11.2942 6.84872e-06H6.70179C6.52274 -0.000662313 6.34712 0.047717 6.19506 0.139602C6.04299 0.231487 5.92062 0.363161 5.84196 0.519538L5.46429 1.25001H0.642857C0.472361 1.25001 0.308848 1.31585 0.188288 1.43306C0.0677294 1.55027 0 1.70925 0 1.87501L0 3.12501C0 3.29077 0.0677294 3.44974 0.188288 3.56695C0.308848 3.68416 0.472361 3.75001 0.642857 3.75001H17.3571C17.5276 3.75001 17.6912 3.68416 17.8117 3.56695C17.9323 3.44974 18 3.29077 18 3.12501V1.87501C18 1.70925 17.9323 1.55027 17.8117 1.43306C17.6912 1.31585 17.5276 1.25001 17.3571 1.25001Z" fill="#58585A"/>
</svg>
