<svg width="18" height="18" viewBox="0 0 18 18" fill="none" xmlns="http://www.w3.org/2000/svg">
<path d="M17.55 15.75H15.3V3.98845C15.3 3.03009 14.6945 2.24997 13.95 2.24997H10.8V4.49997H13.5V18H17.55C17.7986 18 18 17.7483 18 17.4375V16.3125C18 16.0017 17.7986 15.75 17.55 15.75ZM8.78175 0.0354736L3.38175 1.78415C2.98097 1.91388 2.7 2.38005 2.7 2.91513V15.75H0.45C0.201375 15.75 0 16.0017 0 16.3125V17.4375C0 17.7483 0.201375 18 0.45 18H9.9V1.16645C9.9 0.407779 9.34987 -0.148745 8.78175 0.0354736ZM7.425 10.125C7.05234 10.125 6.75 9.62119 6.75 8.99998C6.75 8.37877 7.05234 7.87498 7.425 7.87498C7.79766 7.87498 8.1 8.37877 8.1 8.99998C8.1 9.62119 7.79766 10.125 7.425 10.125Z" fill="#58585B"/>
</svg>
