<svg xmlns="http://www.w3.org/2000/svg" viewBox="0 0 219 219"><defs><style>.cls-1{fill:#f89c1c;}.cls-2{fill:#fff;}</style></defs><g id="Capa_2" data-name="Capa 2"><g id="Layer_1" data-name="Layer 1"><rect class="cls-1" width="219" height="219" rx="109.5"/><path class="cls-2" d="M139.27,45.18v1.29c-19.46-11.73-42-9.67-42.07-9.67-59.58,7.46-65.1,66.13-65,65.38-3.27,55,41,73.73,40.77,73.65,41.31,17.5,69.64-6.38,69.64-6.38v4.37a8.61,8.61,0,0,0,8.6,8.61h13.88a8.61,8.61,0,0,0,8.6-8.61V45.18a8.61,8.61,0,0,0-8.6-8.61h-17.2A8.61,8.61,0,0,0,139.27,45.18Zm2.09,74.11c-.26,1.07-1.77,5.22-2.21,6.35-6.1,15.67-19.81,25-36.67,25A38,38,0,0,1,74.9,138.59a42,42,0,0,1,0-58.18,38,38,0,0,1,27.59-12.07c17.31,0,30.66,8.69,36.6,23.82.18.44,1.52,4.2,1.86,5.4A42,42,0,0,1,141.36,119.29Z"/></g></g></svg>