<svg xmlns="http://www.w3.org/2000/svg" viewBox="0 0 28.13 28.13"><defs><style>.cls-1{fill:#f99c24;}.cls-2{fill:#fff;}</style></defs><g id="Capa_2" data-name="Capa 2"><g id="Layer_1" data-name="Layer 1"><circle class="cls-1" cx="14.06" cy="14.06" r="14.06"/><path class="cls-2" d="M24,14.3l0,.06a1,1,0,0,1-1,.72H19.48a1.06,1.06,0,0,1-1-.59l-.7-1.22-.11-.18c0,.09-.06.14-.08.2-.75,2.52-1.51,5-2.26,7.55a1.07,1.07,0,0,1-.93.87,1,1,0,0,1-1.08-.78c-.15-.61-.29-1.22-.43-1.83-.62-2.71-1.25-5.41-1.88-8.17a1.78,1.78,0,0,0-.1.23c-.41,1.05-.81,2.09-1.21,3.13a1,1,0,0,1-1.13.79H5.22A1,1,0,0,1,4.12,14a1,1,0,0,1,.92-1c.92,0,1.83,0,2.74,0a.28.28,0,0,0,.31-.21Q9.17,10,10.26,7.18a1,1,0,0,1,2,.08l2.1,9.11a.73.73,0,0,0,.1.25l.06-.19q.92-3.06,1.84-6.12a1,1,0,0,1,1.11-.83,1,1,0,0,1,.82.57c.43.75.86,1.49,1.28,2.24l.34.59a.28.28,0,0,0,.28.17c.82,0,1.63,0,2.45,0a1.21,1.21,0,0,1,1.36.79Z"/></g></g></svg>