<svg width="24" height="24" viewBox="0 0 24 24" fill="none" xmlns="http://www.w3.org/2000/svg">
<path d="M23.8046 9.09094L22.8617 8.03016C22.6012 7.73719 22.1792 7.73719 21.9187 8.03016L21.4475 8.56031L20.2433 7.20563C20.4779 6.20672 20.2583 5.10094 19.5621 4.31766L17.6766 2.19656C15.0733 -0.732187 10.852 -0.732187 8.24824 2.19656L12.0195 4.31766V5.19656C12.0195 5.99203 12.3003 6.75516 12.8008 7.31766L14.8483 9.62109C15.5445 10.4044 16.5275 10.6514 17.4154 10.3875L18.6196 11.7422L18.1483 12.2723C17.8879 12.5653 17.8879 13.0402 18.1483 13.3331L19.0912 14.3939C19.3516 14.6869 19.7737 14.6869 20.0341 14.3939L23.8054 10.1512C24.065 9.85875 24.065 9.38391 23.8046 9.09094ZM11.8578 8.37844C11.7037 8.205 11.5728 8.01328 11.4474 7.81828L0.8182 18.9825C-0.247223 20.1019 -0.275973 21.9914 0.75445 23.1511C1.78487 24.3108 3.46488 24.2784 4.45989 23.0794L14.382 11.123C14.217 10.9866 14.0529 10.8478 13.9054 10.6819L11.8578 8.37844Z" fill="#58585A"/>
</svg>
