<svg xmlns="http://www.w3.org/2000/svg" viewBox="0 0 28.13 28.13"><defs><style>.cls-1{fill:#f99c24;}.cls-2{fill:#fff;}</style></defs><g id="Capa_2" data-name="Capa 2"><g id="Layer_1" data-name="Layer 1"><circle class="cls-1" cx="14.06" cy="14.06" r="14.06"/><path class="cls-2" d="M17.59,7.52c-.41.38-.8.77-1.21,1.12a.61.61,0,0,1-.46,0,6.46,6.46,0,0,0-5.83.46,6.52,6.52,0,1,0,9.83,6.48,6.15,6.15,0,0,0-.44-3.38.41.41,0,0,1,.1-.55c.36-.33.69-.68,1-1a8.17,8.17,0,0,1-1.33,10,8.3,8.3,0,1,1-1.7-13.06Z"/><path class="cls-2" d="M18.08,13.1a4.92,4.92,0,1,1-3.11-3c-.44.45-.86.89-1.3,1.3-.07.06-.22.05-.33.06a3.28,3.28,0,1,0,3.41,3.34.69.69,0,0,1,.13-.38C17.25,14,17.65,13.55,18.08,13.1Z"/><path class="cls-2" d="M20.91,5.16,21.17,7,23,7.22c-.33.33-.6.61-.88.88s-.68.67-1,1a.94.94,0,0,1-1,.4.56.56,0,0,0-.43.19c-1.45,1.43-2.9,2.87-4.32,4.33a.94.94,0,0,0-.17.61,1.65,1.65,0,0,1-1,1.59,1.68,1.68,0,0,1-1.86-.4A1.61,1.61,0,0,1,11.92,14a1.51,1.51,0,0,1,1.49-1,1.12,1.12,0,0,0,.93-.38c1.34-1.37,2.69-2.71,4.05-4.06a.58.58,0,0,0,.22-.67.54.54,0,0,1,.18-.61C19.47,6.64,20.14,5.94,20.91,5.16Z"/></g></g></svg>