<svg width="28" height="37" viewBox="0 0 28 37" fill="none" xmlns="http://www.w3.org/2000/svg">
<path d="M12.496 35.4033C1.95635 20.5383 0 19.0127 0 13.5496C0 6.06635 6.23544 0 13.9273 0C21.6192 0 27.8546 6.06635 27.8546 13.5496C27.8546 19.0127 25.8983 20.5383 15.3586 35.4033C14.667 36.3754 13.1876 36.3753 12.496 35.4033Z" fill="#58585B"/>
<path d="M19.7003 10.8396H11.1622V9.63524C11.1622 9.41443 10.9951 9.23376 10.791 9.23376H10.0485C9.84433 9.23376 9.67728 9.41443 9.67728 9.63524V10.8396H8.56361C8.35943 10.8396 8.19238 11.0203 8.19238 11.2411V12.0441C8.19238 12.2649 8.35943 12.4455 8.56361 12.4455H9.67728V21.6794C9.67728 21.9002 9.84433 22.0808 10.0485 22.0808H10.791C10.9951 22.0808 11.1622 21.9002 11.1622 21.6794V12.4455H19.7003C19.9045 12.4455 20.0716 12.2649 20.0716 12.0441V11.2411C20.0716 11.0203 19.9045 10.8396 19.7003 10.8396ZM11.9046 18.8691H19.3291V13.2485H11.9046V18.8691Z" fill="white"/>
</svg>
