<svg xmlns="http://www.w3.org/2000/svg" viewBox="0 0 232.01 341.14"><defs><style>.cls-1{fill:#fb3c00;}.cls-2{fill:#fff;}</style></defs><g id="Capa_2" data-name="Capa 2"><g id="Layer_1" data-name="Layer 1"><path class="cls-1" d="M231,100.85A113.29,113.29,0,0,0,218.3,61.32c-13.05-24-32.12-41.46-57.24-52.18A113.72,113.72,0,0,0,97.57,1.52,111.7,111.7,0,0,0,45.12,24.34,119.6,119.6,0,0,0,27.67,40.92,114.57,114.57,0,0,0,.28,108.27,130.64,130.64,0,0,0,3.51,146c5,22.6,13.75,43.79,24.12,64.36a514.2,514.2,0,0,0,43,70.25C82,296.24,94,311.45,105.86,326.77c3.78,4.89,8,9.47,12.11,14.37.59-.67.92-1,1.25-1.43,12.28-14.42,23.83-29.41,34.85-44.81,17.47-24.4,33.63-49.62,47.32-76.36,11.21-21.88,20.78-44.4,26.38-68.44C231.56,133.88,233.23,117.5,231,100.85Z"/><path class="cls-2" d="M141,57.15v1.1c-16.53-10-35.68-8.22-35.73-8.21C54.61,56.37,49.92,106.21,50,105.57c-2.78,46.69,34.79,62.63,34.63,62.56,35.08,14.86,59.15-5.42,59.15-5.42v3.71a7.31,7.31,0,0,0,7.31,7.31h11.78a7.31,7.31,0,0,0,7.31-7.31V57.15a7.3,7.3,0,0,0-7.31-7.3H148.25A7.3,7.3,0,0,0,141,57.15Zm1.78,63c-.23.9-1.51,4.43-1.88,5.39-5.19,13.3-16.83,21.24-31.15,21.24A32.32,32.32,0,0,1,86.27,136.5a35.68,35.68,0,0,1,0-49.42A32.29,32.29,0,0,1,109.7,76.83c14.7,0,26,7.38,31.09,20.23.15.37,1.29,3.57,1.57,4.59A35.62,35.62,0,0,1,142.73,120.11Z"/></g></g></svg>