<svg width="18" height="18" viewBox="0 0 18 18" fill="none" xmlns="http://www.w3.org/2000/svg">
<path d="M6.30025 8.99979C8.28876 8.99979 9.90039 6.98538 9.90039 4.49989C9.90039 2.01441 8.28876 0 6.30025 0C4.31173 0 2.70011 2.01441 2.70011 4.49989C2.70011 6.98538 4.31173 8.99979 6.30025 8.99979ZM8.82034 10.1248H8.35064C7.72624 10.4833 7.03153 10.6872 6.30025 10.6872C5.56897 10.6872 4.87707 10.4833 4.24985 10.1248H3.78015C1.69319 10.1248 0 12.2411 0 14.8496V16.3121C0 17.2437 0.604711 17.9996 1.35005 17.9996H9.08192C9.01441 17.7605 8.98629 17.5074 9.00879 17.2508L9.20005 15.1098L9.2338 14.7196L9.456 14.4418L11.6301 11.7243C10.9411 10.7505 9.94258 10.1248 8.82034 10.1248ZM10.0945 15.2328L9.9032 17.3773C9.87226 17.7359 10.1141 18.0382 10.3982 17.9961L12.1111 17.757L15.9897 12.9091L13.973 10.3884L10.0945 15.2328ZM17.8038 9.45329L16.7378 8.1209C16.4763 7.79396 16.0488 7.79396 15.7872 8.1209L14.724 9.44978L14.6087 9.59391L16.6282 12.1146L17.8038 10.6451C18.0654 10.3146 18.0654 9.78375 17.8038 9.45329Z" fill="#58585B"/>
</svg>
