<svg xmlns="http://www.w3.org/2000/svg" xmlns:xlink="http://www.w3.org/1999/xlink" viewBox="0 0 214.57 251.5"><defs><style>.cls-1{fill:url(#linear-gradient);}.cls-2{fill:#474747;}.cls-3{fill:#dcdcdc;}.cls-4{fill:#c8c8c8;}.cls-5{fill:url(#linear-gradient-2);}.cls-6{fill:url(#linear-gradient-3);}.cls-7{fill:url(#linear-gradient-4);}.cls-8{fill:#f99d1c;}.cls-9{fill:url(#radial-gradient);}.cls-10{fill:url(#linear-gradient-5);}.cls-11{fill:url(#linear-gradient-6);}.cls-12{fill:#424242;}.cls-13{fill:#fff;}</style><linearGradient id="linear-gradient" x1="183.96" y1="11.24" x2="198.46" y2="11.24" gradientUnits="userSpaceOnUse"><stop offset="0" stop-color="#dcdcdc"/><stop offset="1" stop-color="#444"/></linearGradient><linearGradient id="linear-gradient-2" x1="93.47" y1="247.31" x2="120.24" y2="247.31" gradientUnits="userSpaceOnUse"><stop offset="0" stop-color="#b4b4b4"/><stop offset="0.19" stop-color="#ddd"/><stop offset="0.26" stop-color="#e3e3e3"/><stop offset="0.34" stop-color="#d8d8d8"/><stop offset="0.65" stop-color="#7b7b7b"/><stop offset="0.73" stop-color="#6f6f6f"/><stop offset="0.8" stop-color="#7d7d7d"/><stop offset="1" stop-color="#cdcdcd"/></linearGradient><linearGradient id="linear-gradient-3" x1="93.47" y1="243.16" x2="120.24" y2="243.16" gradientUnits="userSpaceOnUse"><stop offset="0.01" stop-color="#e3e3e3"/><stop offset="1" stop-color="#cdcdcd"/></linearGradient><linearGradient id="linear-gradient-4" x1="97.27" y1="186.8" x2="116.44" y2="186.8" xlink:href="#linear-gradient-2"/><radialGradient id="radial-gradient" cx="3.33" cy="22.61" r="235.04" gradientUnits="userSpaceOnUse"><stop offset="0" stop-color="#cbcbcb"/><stop offset="1" stop-color="#787878"/></radialGradient><linearGradient id="linear-gradient-5" x1="209.43" y1="127.08" x2="208.16" y2="125.84" gradientUnits="userSpaceOnUse"><stop offset="0" stop-color="#c8c8c8"/><stop offset="1" stop-color="#444"/></linearGradient><linearGradient id="linear-gradient-6" x1="209.45" y1="124.37" x2="210.84" y2="125.65" xlink:href="#linear-gradient"/></defs><g id="Capa_2" data-name="Capa 2"><g id="Layer_1" data-name="Layer 1"><polygon class="cls-1" points="198.46 21.69 192.12 1.35 189.56 0 183.96 10.62 186.52 11.97 190.32 4.76 195.81 22.48 198.46 21.69"/><path class="cls-2" d="M211.52,22.33H3.06A1.63,1.63,0,0,0,1.43,24V126.86a1.63,1.63,0,0,0,1.63,1.62H211.52a1.62,1.62,0,0,0,1.62-1.62V24A1.62,1.62,0,0,0,211.52,22.33Zm1.34,104.24a1.62,1.62,0,0,1-1.63,1.62H3.34a1.61,1.61,0,0,1-1.62-1.62V24.24a1.62,1.62,0,0,1,1.62-1.62H211.23a1.63,1.63,0,0,1,1.63,1.62ZM213,20.9H1.62A1.63,1.63,0,0,0,0,22.52V128.29a1.63,1.63,0,0,0,1.62,1.62H213a1.62,1.62,0,0,0,1.62-1.62V22.52A1.62,1.62,0,0,0,213,20.9ZM214.29,128a1.63,1.63,0,0,1-1.62,1.63H1.91A1.62,1.62,0,0,1,.29,128V22.81a1.61,1.61,0,0,1,1.62-1.62H212.67a1.62,1.62,0,0,1,1.62,1.62Z"/><path class="cls-3" d="M213,20.9H1.62A1.63,1.63,0,0,0,0,22.52V128.29a1.63,1.63,0,0,0,1.62,1.62H213a1.62,1.62,0,0,0,1.62-1.62V22.52A1.62,1.62,0,0,0,213,20.9ZM214.29,128a1.63,1.63,0,0,1-1.62,1.63H1.91A1.62,1.62,0,0,1,.29,128V22.81a1.61,1.61,0,0,1,1.62-1.62H212.67a1.62,1.62,0,0,1,1.62,1.62Z"/><path class="cls-4" d="M214.26,21.57l-.3.27a1.56,1.56,0,0,1,.33,1V128a1.63,1.63,0,0,1-1.62,1.63H1.91a1.63,1.63,0,0,1-1.13-.46l-.28.29a1.61,1.61,0,0,0,1.12.45H213a1.62,1.62,0,0,0,1.62-1.62V22.52A1.59,1.59,0,0,0,214.26,21.57Zm-2.74,106.91a1.62,1.62,0,0,0,1.62-1.62V24a1.49,1.49,0,0,0,0-.21l-.3.19c0-.09,0,.11,0,.31V126.57a1.62,1.62,0,0,1-1.63,1.62H3.34a1.59,1.59,0,0,1-1.15-.48L1.9,128a1.63,1.63,0,0,0,1.16.48Z"/><path class="cls-5" d="M106.83,244c-12.91,0-13.36-.86-13.36-.86v7.52s.73.84,13.36.86,13.41-.86,13.41-.86v-7.52S119.73,244,106.83,244Z"/><path class="cls-6" d="M120.24,243.16c0,.45-6,.82-13.39.82s-13.38-.37-13.38-.82,6-.81,13.38-.81S120.24,242.71,120.24,243.16Z"/><path class="cls-7" d="M97.27,129.91V243.12s.39.52,9.58.57,9.59-.57,9.59-.57V129.91Z"/><rect class="cls-8" x="1.72" y="22.62" width="211.14" height="105.58" rx="1.62"/><path class="cls-9" d="M212.67,21.19H1.91A1.61,1.61,0,0,0,.29,22.81V128a1.62,1.62,0,0,0,1.62,1.63H212.67a1.63,1.63,0,0,0,1.62-1.63V22.81A1.62,1.62,0,0,0,212.67,21.19Zm.47,105.67a1.62,1.62,0,0,1-1.62,1.62H3.06a1.63,1.63,0,0,1-1.63-1.62V24a1.63,1.63,0,0,1,1.63-1.62H211.52A1.62,1.62,0,0,1,213.14,24Z"/><path class="cls-10" d="M208.1,125.76l-.25.29a1.63,1.63,0,0,1,1.39,1.29l.3-.18A1.62,1.62,0,0,0,208.1,125.76Z"/><path class="cls-11" d="M209.36,124.32h-.09l-.18.28a1.63,1.63,0,0,1,1.58,1.3l.3-.15A1.62,1.62,0,0,0,209.36,124.32Z"/><path class="cls-12" d="M214.56,22.34l-.31.14a1.24,1.24,0,0,1,0,.33V128a1.63,1.63,0,0,1-1.62,1.63H1.91a1.63,1.63,0,0,1-1.21-.54l-.29.27a1.59,1.59,0,0,0,1.21.55H213a1.62,1.62,0,0,0,1.62-1.62V22.52C214.57,22.46,214.56,22.4,214.56,22.34Z"/><path class="cls-13" d="M102.92,80.1a5,5,0,0,1,1-1.81,4.64,4.64,0,0,1,1.67-1.21,6,6,0,0,1,4.56,0,4.65,4.65,0,0,1,1.65,1.21,5.19,5.19,0,0,1,1,1.81,7.4,7.4,0,0,1,.33,2.24,7.31,7.31,0,0,1-.33,2.24,5.14,5.14,0,0,1-1,1.8,4.75,4.75,0,0,1-1.65,1.2,6.26,6.26,0,0,1-4.56,0,4.74,4.74,0,0,1-1.67-1.2,5,5,0,0,1-1-1.8,7.3,7.3,0,0,1-.34-2.24A7.4,7.4,0,0,1,102.92,80.1Zm1.82,4a3.66,3.66,0,0,0,.73,1.29,3.15,3.15,0,0,0,1.09.79,3.24,3.24,0,0,0,3.72-.79A3.64,3.64,0,0,0,111,84.1a5.84,5.84,0,0,0,0-3.51,3.78,3.78,0,0,0-.72-1.3,3.14,3.14,0,0,0-1.09-.8,3.23,3.23,0,0,0-2.63,0,3.05,3.05,0,0,0-1.09.8,3.8,3.8,0,0,0-.73,1.3,6.05,6.05,0,0,0,0,3.51Z"/><path class="cls-13" d="M122.78,87.78V86.05h0a3.66,3.66,0,0,1-1.45,1.49,4.33,4.33,0,0,1-2.09.47,4.91,4.91,0,0,1-1.79-.28,2.89,2.89,0,0,1-1.16-.81,3.1,3.1,0,0,1-.62-1.26,7.37,7.37,0,0,1-.18-1.84V76.65h1.79v7.61a2.16,2.16,0,0,0,.59,1.6,2.19,2.19,0,0,0,1.62.6,3.65,3.65,0,0,0,1.43-.26,2.8,2.8,0,0,0,1-.71,3.05,3.05,0,0,0,.6-1.09,4.51,4.51,0,0,0,.2-1.36V76.65h1.79V87.78Z"/><path class="cls-13" d="M133,76.49v1.58h-2.17v7.35a2.14,2.14,0,0,0,.05.5.59.59,0,0,0,.2.3.9.9,0,0,0,.41.14,6.47,6.47,0,0,0,.69,0H133V88h-1.37a5.87,5.87,0,0,1-1.19-.1,1.78,1.78,0,0,1-.8-.34,1.4,1.4,0,0,1-.45-.72,4.09,4.09,0,0,1-.15-1.22V78.07h-1.86V76.49H129V72.7h1.79v3.79Z"/><path class="cls-13" d="M144.5,87.78V86.31h-.05a2.6,2.6,0,0,1-1.39,1.3A5.25,5.25,0,0,1,141,88a4.93,4.93,0,0,1-2.21-.46,4.64,4.64,0,0,1-1.56-1.24,5.71,5.71,0,0,1-.94-1.82A7.73,7.73,0,0,1,136,82.3a7.48,7.48,0,0,1,.31-2.19,5.11,5.11,0,0,1,.92-1.8,4.61,4.61,0,0,1,1.56-1.23,5.23,5.23,0,0,1,3.09-.36,4.43,4.43,0,0,1,1,.28,4.06,4.06,0,0,1,.92.53,3.12,3.12,0,0,1,.72.81h.05V72.73h1.79v15Zm-6.45-3.87a4,4,0,0,0,.62,1.3,3,3,0,0,0,1.05.91,3.26,3.26,0,0,0,1.51.34,2.95,2.95,0,0,0,2.57-1.3,3.93,3.93,0,0,0,.58-1.32,6.28,6.28,0,0,0,.18-1.5,6,6,0,0,0-.19-1.54,4,4,0,0,0-.6-1.32,3.08,3.08,0,0,0-1.07-.92,3.32,3.32,0,0,0-1.58-.35,3.1,3.1,0,0,0-1.54.36,3,3,0,0,0-1,1,4.3,4.3,0,0,0-.55,1.35,7.24,7.24,0,0,0-.16,1.56A5.67,5.67,0,0,0,138.05,83.91Z"/><path class="cls-13" d="M149.62,80.1a5,5,0,0,1,1-1.81,4.55,4.55,0,0,1,1.67-1.21,5.41,5.41,0,0,1,2.27-.45,5.47,5.47,0,0,1,2.29.45,4.65,4.65,0,0,1,1.65,1.21,5,5,0,0,1,1,1.81,7.1,7.1,0,0,1,.34,2.24,7,7,0,0,1-.34,2.24,5,5,0,0,1-1,1.8,4.75,4.75,0,0,1-1.65,1.2,5.64,5.64,0,0,1-2.29.43,5.57,5.57,0,0,1-2.27-.43,4.65,4.65,0,0,1-1.67-1.2,5,5,0,0,1-1-1.8,7.3,7.3,0,0,1-.34-2.24A7.4,7.4,0,0,1,149.62,80.1Zm1.82,4a3.66,3.66,0,0,0,.73,1.29,3.15,3.15,0,0,0,1.09.79,3.24,3.24,0,0,0,1.31.28,3.29,3.29,0,0,0,1.32-.28,3.24,3.24,0,0,0,1.09-.79,3.64,3.64,0,0,0,.72-1.29,5.84,5.84,0,0,0,0-3.51,3.78,3.78,0,0,0-.72-1.3,3.14,3.14,0,0,0-1.09-.8,3.29,3.29,0,0,0-1.32-.28,3.24,3.24,0,0,0-1.31.28,3.05,3.05,0,0,0-1.09.8,3.8,3.8,0,0,0-.73,1.3,6.05,6.05,0,0,0,0,3.51Z"/><path class="cls-13" d="M162.36,80.1a5.17,5.17,0,0,1,1-1.81A4.64,4.64,0,0,1,165,77.08a6,6,0,0,1,4.56,0,4.65,4.65,0,0,1,1.65,1.21,5.19,5.19,0,0,1,1,1.81,7.4,7.4,0,0,1,.33,2.24,7.31,7.31,0,0,1-.33,2.24,5.14,5.14,0,0,1-1,1.8,4.75,4.75,0,0,1-1.65,1.2,6.26,6.26,0,0,1-4.56,0,4.74,4.74,0,0,1-1.67-1.2,5.12,5.12,0,0,1-1-1.8,7.3,7.3,0,0,1-.34-2.24A7.4,7.4,0,0,1,162.36,80.1Zm1.83,4a3.5,3.5,0,0,0,.72,1.29,3.15,3.15,0,0,0,1.09.79,3.23,3.23,0,0,0,2.63,0,3.15,3.15,0,0,0,1.09-.79,3.64,3.64,0,0,0,.72-1.29,5.84,5.84,0,0,0,0-3.51,3.78,3.78,0,0,0-.72-1.3,3.05,3.05,0,0,0-1.09-.8,3.23,3.23,0,0,0-2.63,0,3.05,3.05,0,0,0-1.09.8,3.63,3.63,0,0,0-.72,1.3,5.84,5.84,0,0,0,0,3.51Z"/><path class="cls-13" d="M177.12,76.89v2.29h0a4.85,4.85,0,0,1,1.6-2,4,4,0,0,1,2.4-.59v1.9a5.24,5.24,0,0,0-1.83.29,2.9,2.9,0,0,0-1.22.87,3.57,3.57,0,0,0-.68,1.38,7.44,7.44,0,0,0-.21,1.86v4.85h-1.79V76.89Z"/><path class="cls-13" d="M89.08,88a8.88,8.88,0,0,1-6.47-2.78,9.63,9.63,0,0,1,0-13.27,9.06,9.06,0,0,1,6.47-2.78,8.74,8.74,0,0,1,8.52,6.2l.05.16v.06a1.4,1.4,0,0,1,0,.23,1.28,1.28,0,0,1-1.28,1.28H94.86a1.28,1.28,0,0,1-1.15-.71v0l0-.1a4.72,4.72,0,0,0-4.58-3,4.89,4.89,0,0,0-3.56,1.56,5.42,5.42,0,0,0,0,7.51,5,5,0,0,0,8.27-1.6.76.76,0,0,1,0-.11l0-.13.05-.08A1.3,1.3,0,0,1,95,79.86h1.54a1.28,1.28,0,0,1,1.28,1.28,1.1,1.1,0,0,1,0,.18v.12l0,.15A8.9,8.9,0,0,1,89.08,88Z"/><path class="cls-13" d="M54.44,88a4.33,4.33,0,0,1-4.33-4.33V60.1a1.28,1.28,0,0,1,1.27-1.28h1.89a1.28,1.28,0,0,1,1.28,1.28V82.64c0,.28.07,1.25.79,1.25h1.4A1.27,1.27,0,0,1,58,85.16v1.57a1.3,1.3,0,0,1-.27.79,1.28,1.28,0,0,1-1,.49Z"/><path class="cls-13" d="M41.89,70.29v.16a10,10,0,0,0-5.43-1.24c-7.7,1-8.41,8.54-8.4,8.44a9.57,9.57,0,0,0,5.27,9.51,8.87,8.87,0,0,0,9-.82v.56A1.11,1.11,0,0,0,43.43,88h1.79a1.11,1.11,0,0,0,1.11-1.11V70.29a1.1,1.1,0,0,0-1.11-1.11H43A1.11,1.11,0,0,0,41.89,70.29Zm.27,9.57c0,.14-.23.67-.29.82a5,5,0,0,1-8.29,1.67,5.42,5.42,0,0,1,0-7.51,4.87,4.87,0,0,1,3.56-1.56,4.81,4.81,0,0,1,4.73,3.07l.24.7A5.47,5.47,0,0,1,42.16,79.86Z"/><path class="cls-13" d="M72.56,70.29v.17a9.9,9.9,0,0,0-5.43-1.25c-7.69,1-8.4,8.54-8.4,8.44A9.57,9.57,0,0,0,64,87.16a8.87,8.87,0,0,0,9-.82v.56A1.11,1.11,0,0,0,74.1,88h1.8A1.11,1.11,0,0,0,77,86.9V70.29a1.11,1.11,0,0,0-1.11-1.11H73.67A1.11,1.11,0,0,0,72.56,70.29Zm.27,9.57c0,.14-.22.68-.28.82a5,5,0,0,1-8.3,1.67,5.42,5.42,0,0,1,0-7.51,4.93,4.93,0,0,1,3.56-1.56,4.8,4.8,0,0,1,4.73,3.08s.2.54.24.7A5.43,5.43,0,0,1,72.83,79.86Z"/><path class="cls-13" d="M187,74.33a1.68,1.68,0,1,1-1.68-1.68A1.68,1.68,0,0,1,187,74.33Zm-.27,0a1.42,1.42,0,1,0-1.42,1.41A1.41,1.41,0,0,0,186.77,74.33Z"/><path class="cls-13" d="M185,74.41v.79h-.38V73.31h.94a.64.64,0,0,1,.38.08.51.51,0,0,1,.22.54.46.46,0,0,1-.33.4l-.15,0c.32.2.44.54.65.83h-.45s0,0-.05,0c-.13-.18-.26-.37-.38-.56A.42.42,0,0,0,185,74.41Zm0-.31h.55a.22.22,0,0,0,.22-.25.21.21,0,0,0-.23-.22H185Z"/></g></g></svg>