<svg width="22" height="22" viewBox="0 0 22 22" fill="none" xmlns="http://www.w3.org/2000/svg">
<path d="M21.4765 3.33746e-07H19.4084C19.3375 -7.97342e-05 19.2674 0.0142476 19.2022 0.0421136C19.137 0.0699796 19.0781 0.110804 19.0292 0.16211C18.9802 0.213417 18.9422 0.274137 18.9174 0.340588C18.8926 0.40704 18.8816 0.477838 18.8849 0.548691L19.0594 4.16123C18.0449 2.96497 16.7821 2.00426 15.3589 1.34594C13.9357 0.68761 12.3862 0.347479 10.8183 0.349207C4.8569 0.349207 -0.00435929 5.21758 2.93352e-06 11.1829C0.00436516 17.1578 4.84643 22 10.8183 22C13.4972 22.0038 16.0815 21.0093 18.0675 19.2103C18.1205 19.1628 18.1633 19.1049 18.1933 19.0403C18.2232 18.9756 18.2397 18.9056 18.2416 18.8344C18.2436 18.7631 18.231 18.6923 18.2047 18.6261C18.1783 18.5599 18.1388 18.4998 18.0884 18.4494L16.6052 16.9653C16.5114 16.8714 16.3854 16.8167 16.2527 16.8122C16.1201 16.8078 15.9907 16.8539 15.8907 16.9413C14.7188 17.973 13.2604 18.6228 11.71 18.804C10.1596 18.9852 8.59085 18.6892 7.21285 17.9555C5.83486 17.2218 4.7131 16.0852 3.99712 14.6972C3.28114 13.3093 3.00496 11.7359 3.20539 10.1869C3.40583 8.63786 4.07335 7.18677 5.11898 6.02705C6.16461 4.86733 7.53867 4.0541 9.05797 3.69575C10.5773 3.3374 12.1696 3.45097 13.6228 4.02132C15.0759 4.59167 16.3208 5.5917 17.1915 6.88809L12.7626 6.67551C12.6918 6.67214 12.621 6.6832 12.5546 6.70801C12.4882 6.73282 12.4275 6.77087 12.3762 6.81985C12.325 6.86883 12.2842 6.92772 12.2563 6.99295C12.2285 7.05818 12.2141 7.12839 12.2142 7.19932V9.26881C12.2142 9.40773 12.2694 9.54096 12.3675 9.6392C12.4657 9.73743 12.5989 9.79261 12.7377 9.79261H21.4765C21.6154 9.79261 21.7485 9.73743 21.8467 9.6392C21.9448 9.54096 22 9.40773 22 9.26881V0.52381C22 0.384887 21.9448 0.251654 21.8467 0.153421C21.7485 0.0551872 21.6154 3.33746e-07 21.4765 3.33746e-07V3.33746e-07Z" fill="black"/>
</svg>
